D:\school\WTK\thesis\model\3dpredictsim\Results\Batchsim_tmt_linear_v2\Pog_s1_tmt_bCst_d00_k1000_ig24_pas_GRF.mot
nRows=30
nColumns=19

name D:\school\WTK\thesis\model\3dpredictsim\Results\Batchsim_tmt_linear_v2\Pog_s1_tmt_bCst_d00_k1000_ig24_pas_GRF.mot
datacolumns 19
datarows 30
range 0.5405895187 0.8541314396
endheader
time 	ground_force_vx	ground_force_vy	ground_force_vz	ground_force_px	ground_force_py	ground_force_pz	1_ground_force_vx	1_ground_force_vy	1_ground_force_vz	1_ground_force_px	1_ground_force_py	1_ground_force_pz	ground_torque_x	ground_torque_y	ground_torque_z	1_ground_torque_x	1_ground_torque_y	1_ground_torque_z
        0.5405895187	      110.1697483974	      462.1568443659	       -2.5067869853	        0.3244505604	        0.0000000000	        0.0469238012	      -80.5123557654	       61.6338368397	      -17.4250100601	        0.8344545196	        0.0000000000	       -0.0455514057	        0.0000000000	        0.0000000000	        0.0000000000	        0.0000000000	        0.0000000000	        0.0000000000	
        0.5514013091	       76.2789423423	      361.5303249672	        3.6722475809	        0.3391079117	        0.0000000000	        0.0445838122	     -140.9106283853	      142.1951079541	      -44.8376483857	        0.8425974108	        0.0000000000	       -0.0440166017	        0.0000000000	        0.0000000000	        0.0000000000	        0.0000000000	        0.0000000000	        0.0000000000	
        0.5622130995	       39.2721062113	      256.7571980898	        7.2126193436	        0.3626889850	        0.0000000000	        0.0402746418	      -62.6653050357	      295.9315745294	      -18.5634342044	        0.8492667588	        0.0000000000	       -0.0425856493	        0.0000000000	        0.0000000000	        0.0000000000	        0.0000000000	        0.0000000000	        0.0000000000	
        0.5730248898	       11.9352493236	      173.4872684397	        8.3500571212	        0.3938250158	        0.0000000000	        0.0329211829	      -61.1788036208	      485.0411611428	        0.3757695707	        0.8543644844	        0.0000000000	       -0.0432438156	        0.0000000000	        0.0000000000	        0.0000000000	        0.0000000000	        0.0000000000	        0.0000000000	
        0.5838366802	       -0.1946341706	      139.8800520170	       11.2134177151	        0.4032058432	        0.0000000000	        0.0299243500	     -102.5861667244	      728.8418096783	       11.6343363649	        0.8643237087	        0.0000000000	       -0.0461692343	        0.0000000000	        0.0000000000	        0.0000000000	        0.0000000000	        0.0000000000	        0.0000000000	
        0.5946484706	       -0.9425419944	      106.5167956840	       12.2878784961	        0.4037438103	        0.0000000000	        0.0301008213	     -129.4672028508	      892.6021767295	       17.7954149427	        0.8713292516	        0.0000000000	       -0.0481409380	        0.0000000000	        0.0000000000	        0.0000000000	        0.0000000000	        0.0000000000	        0.0000000000	
        0.6054602610	       -3.9823203952	       68.8118319926	       11.7338979471	        0.4042049757	        0.0000000000	        0.0302458909	     -133.0538843813	      938.7365456872	       19.3688016320	        0.8761384357	        0.0000000000	       -0.0493700416	        0.0000000000	        0.0000000000	        0.0000000000	        0.0000000000	        0.0000000000	        0.0000000000	
        0.6162720513	       -8.5670969206	       28.5388287822	        6.3150785887	        0.4038474207	        0.0000000000	        0.0300748791	     -124.0283075324	      910.6418143419	       18.9281344142	        0.8799277577	        0.0000000000	       -0.0502161949	        0.0000000000	        0.0000000000	        0.0000000000	        0.0000000000	        0.0000000000	        0.0000000000	
        0.6270838417	        0.1670819367	       -0.1676735429	       -0.0134545859	        0.0000000000	        0.0000000000	        0.0000000000	     -110.3330616515	      863.2438712056	       17.6964689069	        0.8836093568	        0.0000000000	       -0.0508496690	        0.0000000000	        0.0000000000	        0.0000000000	        0.0000000000	        0.0000000000	        0.0000000000	
        0.6378956321	        0.0004172482	       -0.0003440714	        0.0000047501	        0.0000000000	        0.0000000000	        0.0000000000	      -97.6661089549	      822.1658417224	       17.4445302755	        0.8879850366	        0.0000000000	       -0.0515698025	        0.0000000000	        0.0000000000	        0.0000000000	        0.0000000000	        0.0000000000	        0.0000000000	
        0.6487074225	        0.0001714306	       -0.0001230535	        0.0000052662	        0.0000000000	        0.0000000000	        0.0000000000	      -90.2578672559	      794.7277345196	       17.7852822697	        0.8938719648	        0.0000000000	       -0.0519794482	        0.0000000000	        0.0000000000	        0.0000000000	        0.0000000000	        0.0000000000	        0.0000000000	
        0.6595192128	        0.0012621668	       -0.0008117504	        0.0000493591	        0.0000000000	        0.0000000000	        0.0000000000	      -81.6936555328	      760.9851921017	       17.4284558034	        0.8999282482	        0.0000000000	       -0.0521056602	        0.0000000000	        0.0000000000	        0.0000000000	        0.0000000000	        0.0000000000	        0.0000000000	
        0.6703310032	        0.0085038606	       -0.0050106803	        0.0003681183	        0.0000000000	        0.0000000000	        0.0000000000	      -73.3143976637	      722.9699164502	       17.0282618741	        0.9058095528	        0.0000000000	       -0.0521345313	        0.0000000000	        0.0000000000	        0.0000000000	        0.0000000000	        0.0000000000	        0.0000000000	
        0.6811427936	       -0.0561759983	        0.0308252323	       -0.0025718675	        0.0000000000	        0.0000000000	        0.0000000000	      -65.3621023186	      689.4397586026	       16.7306933862	        0.9116209900	        0.0000000000	       -0.0520597128	        0.0000000000	        0.0000000000	        0.0000000000	        0.0000000000	        0.0000000000	        0.0000000000	
        0.6919545840	       -0.0398127081	        0.0205668235	       -0.0018989649	        0.0000000000	        0.0000000000	        0.0000000000	      -57.8416256203	      662.6509246970	       16.8123757667	        0.9172213724	        0.0000000000	       -0.0519772893	        0.0000000000	        0.0000000000	        0.0000000000	        0.0000000000	        0.0000000000	        0.0000000000	
        0.7027663743	       -0.0277879511	        0.0136285787	       -0.0013642524	        0.0000000000	        0.0000000000	        0.0000000000	      -50.9986870296	      641.9316369101	       17.1875415256	        0.9225227566	        0.0000000000	       -0.0518828143	        0.0000000000	        0.0000000000	        0.0000000000	        0.0000000000	        0.0000000000	        0.0000000000	
        0.7135781647	       -0.0240479736	        0.0112687171	       -0.0012049195	        0.0000000000	        0.0000000000	        0.0000000000	      -44.6813083475	      626.2288132827	       17.4720673144	        0.9275295460	        0.0000000000	       -0.0517712087	        0.0000000000	        0.0000000000	        0.0000000000	        0.0000000000	        0.0000000000	        0.0000000000	
        0.7243899551	       -0.0268012323	        0.0120629685	       -0.0013638557	        0.0000000000	        0.0000000000	        0.0000000000	      -40.1194227872	      615.0765910323	       18.0527673427	        0.9322198785	        0.0000000000	       -0.0516302173	        0.0000000000	        0.0000000000	        0.0000000000	        0.0000000000	        0.0000000000	        0.0000000000	
        0.7352017455	       -0.0373076057	        0.0162107244	       -0.0019310630	        0.0000000000	        0.0000000000	        0.0000000000	      -36.2213784704	      607.5723169849	       18.8562889517	        0.9366017929	        0.0000000000	       -0.0514610799	        0.0000000000	        0.0000000000	        0.0000000000	        0.0000000000	        0.0000000000	        0.0000000000	
        0.7460135358	       -0.0612081876	        0.0257950687	       -0.0032328274	        0.0000000000	        0.0000000000	        0.0000000000	      -32.5382054006	      601.8057320349	       19.8438552231	        0.9406981587	        0.0000000000	       -0.0512688411	        0.0000000000	        0.0000000000	        0.0000000000	        0.0000000000	        0.0000000000	        0.0000000000	
        0.7568253262	       -0.1107070208	        0.0454384733	       -0.0059590961	        0.0000000000	        0.0000000000	        0.0000000000	      -29.0153842699	      596.3841179054	       20.4155629449	        0.9444772155	        0.0000000000	       -0.0510760869	        0.0000000000	        0.0000000000	        0.0000000000	        0.0000000000	        0.0000000000	        0.0000000000	
        0.7676371166	       -0.2064206049	        0.0828210982	       -0.0112530232	        0.0000000000	        0.0000000000	        0.0000000000	      -25.5830982982	      590.8438891211	       20.6065387211	        0.9479537877	        0.0000000000	       -0.0508935813	        0.0000000000	        0.0000000000	        0.0000000000	        0.0000000000	        0.0000000000	        0.0000000000	
        0.7784489070	       -0.3743548395	        0.1473582076	       -0.0205666549	        0.0000000000	        0.0000000000	        0.0000000000	      -22.1714897315	      584.4278764302	       20.6874693481	        0.9511292763	        0.0000000000	       -0.0507172125	        0.0000000000	        0.0000000000	        0.0000000000	        0.0000000000	        0.0000000000	        0.0000000000	
        0.7892606973	       -0.6379348666	        0.2470491036	       -0.0351672611	        0.0000000000	        0.0000000000	        0.0000000000	      -18.5637537241	      577.0634147275	       20.5422816147	        0.9540370375	        0.0000000000	       -0.0505517900	        0.0000000000	        0.0000000000	        0.0000000000	        0.0000000000	        0.0000000000	        0.0000000000	
        0.8000724877	       -1.0105400827	        0.3857659070	       -0.0557277245	        0.0000000000	        0.0000000000	        0.0000000000	      -14.8241447095	      569.0304389818	       20.3035908104	        0.9566839203	        0.0000000000	       -0.0503911594	        0.0000000000	        0.0000000000	        0.0000000000	        0.0000000000	        0.0000000000	        0.0000000000	
        0.8108842781	       -1.4746257182	        0.5560071185	       -0.0810197905	        0.0000000000	        0.0000000000	        0.0000000000	      -10.9686292507	      560.7473414688	       19.8435253183	        0.9589945277	        0.0000000000	       -0.0502357151	        0.0000000000	        0.0000000000	        0.0000000000	        0.0000000000	        0.0000000000	        0.0000000000	
        0.8216960685	       -1.9579035302	        0.7307739384	       -0.1063069106	        0.0000000000	        0.0000000000	        0.0000000000	       -6.6515213340	      554.0666941023	       19.1722790052	        0.9608473414	        0.0000000000	       -0.0500772512	        0.0000000000	        0.0000000000	        0.0000000000	        0.0000000000	        0.0000000000	        0.0000000000	
        0.8325078588	       -2.3353185241	        0.8647175538	       -0.1236464883	        0.0000000000	        0.0000000000	        0.0000000000	       -1.6452538817	      549.1795643869	       18.2765202764	        0.9623094713	        0.0000000000	       -0.0499133666	        0.0000000000	        0.0000000000	        0.0000000000	        0.0000000000	        0.0000000000	        0.0000000000	
        0.8433196492	       -2.4699134154	        0.9090456318	       -0.1250864946	        0.0000000000	        0.0000000000	        0.0000000000	        3.4742552565	      545.4617275963	       16.9353152061	        0.9636173474	        0.0000000000	       -0.0497551445	        0.0000000000	        0.0000000000	        0.0000000000	        0.0000000000	        0.0000000000	        0.0000000000	
        0.8541314396	       -2.2720473553	        0.8324891249	       -0.1067885056	        0.0000000000	        0.0000000000	        0.0000000000	        8.8293372157	      542.9534781412	       15.1110640038	        0.9648306921	        0.0000000000	       -0.0496057133	        0.0000000000	        0.0000000000	        0.0000000000	        0.0000000000	        0.0000000000	        0.0000000000	
